<?xml version="1.0" encoding="UTF-8"?>
<!-- Generator: Adobe Illustrator 16.0.0, SVG Export Plug-In . SVG Version: 6.00 Build 0)  -->
<!DOCTYPE svg PUBLIC "-//W3C//DTD SVG 1.1//EN" "http://www.w3.org/Graphics/SVG/1.1/DTD/svg11.dtd">
<svg version="1.1" id="Ebene_1" xmlns="http://www.w3.org/2000/svg" xmlns:xlink="http://www.w3.org/1999/xlink" x="0px" y="0px" width="660px" height="577px" viewBox="0 0 660 577" enable-background="new 0 0 660 577" xml:space="preserve">
<path fill="#E5E4DC" d="M57.783,367.649h-44c-4.549,0-8.25-3.701-8.25-8.25v-31.705l1.203-0.818  c12.192-8.298,26.931-19.087,27.079-19.195l1.571-1.151l1.607,1.102c0.158,0.108,15.962,10.932,27.867,19.266l1.173,0.821v31.682  C66.033,363.948,62.332,367.649,57.783,367.649z M11.033,330.602v28.798c0,1.517,1.233,2.75,2.75,2.75h44  c1.517,0,2.75-1.233,2.75-2.75v-28.817c-9.452-6.605-20.892-14.466-25.045-17.314C31.505,316.165,20.672,324.005,11.033,330.602z   M37.158,339.16h-2.75v-13.75h2.75V339.16z M39.907,331.282v2.65c3.398,1.57,5.773,4.986,5.773,8.967  c0,5.457-4.44,9.896-9.897,9.896s-9.897-4.439-9.897-9.896c0-3.98,2.377-7.396,5.773-8.967v-2.65  c-4.798,1.704-8.251,6.237-8.251,11.617c0,6.836,5.54,12.374,12.375,12.374c6.836,0,12.375-5.538,12.375-12.374  C48.158,337.52,44.705,332.986,39.907,331.282z M49.551,225.377c3.714,0,6.722-2.985,6.722-6.662v-44.661  c0-3.681-3.007-6.664-6.722-6.664H22.062c-3.71,0-6.72,2.983-6.72,6.664v44.661c0,3.677,3.01,6.662,6.72,6.662h10.334v5.195H15.341  v6.822h17.055h6.822h17.054v-6.822H39.218v-5.195H49.551z M35.807,171.521c2.824,0,5.116,2.292,5.116,5.116  s-2.292,5.117-5.116,5.117c-2.825,0-5.117-2.292-5.117-5.117S32.982,171.521,35.807,171.521z M22.163,188.363  c0-0.942,0.763-1.705,1.706-1.705h23.876c0.946,0,1.706,0.763,1.706,1.705v10.233c0,0.943-0.76,1.706-1.706,1.706H23.869  c-0.943,0-1.706-0.763-1.706-1.706V188.363z M22.163,215.65v-10.233c0-0.942,0.763-1.706,1.706-1.706h23.876  c0.946,0,1.706,0.763,1.706,1.706v10.233c0,0.943-0.76,1.706-1.706,1.706H23.869C22.926,217.356,22.163,216.593,22.163,215.65z   M135.75,93.941h0.286l-0.82,7.736h9.195v4.226h-33.81v-4.226h9.195l-0.82-7.736h0.285H135.75z M154.556,58.154v38.822h-18.52  h-0.286h-16.489h-0.285h-18.518V58.154H154.556z M151.175,61.396H103.84v32.337h47.335V61.396z M133.72,38.344v16.429h3.381V41.586  h47.335v32.337h-26.5v12.17h19.737v-4.226h-9.198l0.499-4.702h0.036h0.288h18.519V38.344H133.72z M377.552,34.841  c-1.226,0-2.446-0.498-3.335-1.478C361.728,19.587,345.152,12,327.55,12c-0.002,0-0.002,0-0.004,0  c-17.602,0.001-34.171,7.588-46.656,21.363c-1.669,1.842-4.515,1.981-6.356,0.312c-1.841-1.669-1.981-4.515-0.312-6.356  C288.433,11.638,307.371,3.001,327.545,3c0.001,0,0.004,0,0.005,0c20.176,0,39.116,8.636,53.335,24.319  c1.669,1.841,1.529,4.687-0.312,6.356C379.712,34.456,378.63,34.841,377.552,34.841z M363.909,54.746  c1.842-1.669,1.98-4.515,0.312-6.356c-9.756-10.759-22.777-16.684-36.668-16.684c-13.891,0-26.913,5.925-36.667,16.684  c-1.669,1.841-1.53,4.687,0.311,6.356c1.84,1.67,4.688,1.53,6.356-0.311c8.027-8.853,18.682-13.729,30-13.729  c11.319,0,21.973,4.875,30,13.729c0.889,0.98,2.109,1.478,3.335,1.478C361.966,55.913,363.048,55.527,363.909,54.746z   M347.238,75.83c1.842-1.669,1.981-4.515,0.313-6.356c-5.309-5.858-12.411-9.084-20.001-9.084c-0.001,0-0.003,0-0.004,0  c-7.589,0.001-14.689,3.228-19.994,9.085c-1.668,1.842-1.527,4.688,0.315,6.356c1.843,1.669,4.688,1.528,6.356-0.315  c3.577-3.95,8.309-6.125,13.324-6.126c0.001,0,0.002,0,0.002,0c5.017,0,9.751,2.176,13.332,6.127c0.889,0.98,2.11,1.479,3.336,1.479  C345.296,76.996,346.377,76.611,347.238,75.83z M519.271,44.263c6.92,0,11.573,3.954,14.259,7.27l1.792,2.214l2.619-1.122  c1.902-0.814,3.848-1.228,5.781-1.228c4.704,0,9.363,2.061,12.464,5.514c2.158,2.403,4.589,6.584,3.913,12.862l-0.423,3.929  l3.944,0.235l0.104,0.006c0.396,0.023,0.771,0.046,1.176,0.046c6.296,0,11.419,5.99,11.419,13.353  c0,7.381-5.123,13.386-11.419,13.386H502.88c-7.278,0-13.199-6.904-13.199-15.391c0-6.401,3.476-12.193,8.648-14.412l2.771-1.189  l-0.553-2.964c-1.159-6.207,0.101-11.91,3.546-16.058C507.548,46.554,512.938,44.263,519.271,44.263 M519.271,40.496  c-15.406,0-25.265,11.773-22.428,26.968c-6.387,2.74-10.93,9.697-10.93,17.874c0,10.576,7.615,19.158,16.966,19.158  c3.885,0,59.145,0,62.021,0c8.398,0,15.186-7.663,15.186-17.153c0-9.454-6.787-17.12-15.186-17.12c-0.319,0-0.654-0.022-1.056-0.046  c1.453-13.497-9.067-22.546-20.122-22.546c-2.557,0-5.01,0.566-7.265,1.532C532.65,44.459,526.949,40.496,519.271,40.496  L519.271,40.496z M529.02,61.007c0,0-9.111,6.675-16.737,11.86v15.259c0,1.876,1.516,3.392,3.392,3.392h10.168V77.955h6.783v13.563  h10.168c1.875,0,3.391-1.516,3.391-3.392V72.867C538.768,67.682,529.02,61.007,529.02,61.007z M594.794,179.037  c-0.349,6.611,4.963,18.896,18.596,34.045c13.636,15.147,25.307,21.738,31.915,22.081c6.606,0.348,7.898-9.571,7.898-9.571  c0.141-1.084-0.463-2.5-1.34-3.151l-10.355-7.661c-0.877-0.651-2.373-0.742-3.322-0.204l-3.485,1.989  c-0.949,0.544-2.442,0.457-3.328-0.186c0,0-6.642-4.867-10.941-9.641c-4.302-4.781-8.42-11.878-8.42-11.878  c-0.55-0.945-0.478-2.442,0.159-3.332l2.337-3.263c0.637-0.889,0.703-2.384,0.15-3.326l-6.537-11.106  c-0.559-0.942-1.904-1.691-2.995-1.661C605.125,172.172,595.137,172.423,594.794,179.037z M648.852,366.943  c0,0.763-0.627,1.393-1.4,1.393h-42.17c-0.78,0-1.395-0.63-1.395-1.393c0,0-1.166-10.205,0-13.312  c0.592-1.638,4.146-4.905,4.911-4.905h3.061v12.847c0,0.754,0.629,1.39,1.424,1.39h25.969c0.762,0,1.396-0.636,1.396-1.39v-12.847  h3.295c0.761,0,4.313,3.268,4.909,4.905C650.018,356.738,648.852,366.943,648.852,366.943z M638.065,306.245v51.33  c0,1.562-1.275,2.843-2.853,2.843h-17.647c-1.606,0-2.896-1.28-2.896-2.843v-51.33c0-1.574,1.289-2.854,2.896-2.854h17.647  C636.79,303.391,638.065,304.671,638.065,306.245z M618.784,336.485h15.399v-26.481h-15.399V336.485z M622.903,352.678  c0-0.639-0.532-1.155-1.166-1.155h-2.329c-0.634,0-1.165,0.517-1.165,1.155v2.32c0,0.644,0.531,1.159,1.165,1.159h2.329  c0.634,0,1.166-0.516,1.166-1.159V352.678z M622.903,346.88c0-0.641-0.532-1.158-1.166-1.158h-2.329  c-0.634,0-1.165,0.518-1.165,1.158v2.32c0,0.641,0.531,1.16,1.165,1.16h2.329c0.634,0,1.166-0.52,1.166-1.16V346.88z   M622.903,341.081c0-0.641-0.532-1.16-1.166-1.16h-2.329c-0.634,0-1.165,0.52-1.165,1.16v2.32c0,0.642,0.531,1.158,1.165,1.158  h2.329c0.634,0,1.166-0.517,1.166-1.158V341.081z M628.699,352.678c0-0.639-0.531-1.155-1.165-1.155h-2.33  c-0.634,0-1.165,0.517-1.165,1.155v2.32c0,0.644,0.531,1.159,1.165,1.159h2.33c0.634,0,1.165-0.516,1.165-1.159V352.678z   M628.699,346.88c0-0.641-0.531-1.158-1.165-1.158h-2.33c-0.634,0-1.165,0.518-1.165,1.158v2.32c0,0.641,0.531,1.16,1.165,1.16h2.33  c0.634,0,1.165-0.52,1.165-1.16V346.88z M628.699,341.081c0-0.641-0.531-1.16-1.165-1.16h-2.33c-0.634,0-1.165,0.52-1.165,1.16v2.32  c0,0.642,0.531,1.158,1.165,1.158h2.33c0.634,0,1.165-0.517,1.165-1.158V341.081z M634.495,352.678c0-0.639-0.531-1.155-1.165-1.155  H631c-0.633,0-1.161,0.517-1.161,1.155v2.32c0,0.644,0.528,1.159,1.161,1.159h2.33c0.634,0,1.165-0.516,1.165-1.159V352.678z   M634.495,346.88c0-0.641-0.531-1.158-1.165-1.158H631c-0.633,0-1.161,0.518-1.161,1.158v2.32c0,0.641,0.528,1.16,1.161,1.16h2.33  c0.634,0,1.165-0.52,1.165-1.16V346.88z M634.495,341.081c0-0.641-0.531-1.16-1.165-1.16H631c-0.633,0-1.161,0.52-1.161,1.16v2.32  c0,0.642,0.528,1.158,1.161,1.158h2.33c0.634,0,1.165-0.517,1.165-1.158V341.081z M533.307,521.156  c-5.809,0-11.454-1.584-16.367-4.614l-2.418-1.505l2.968-4.795l2.418,1.463c8.011,4.962,18.677,4.975,26.741-0.005l2.363-1.458  l3.045,4.613l-2.672,1.759C544.708,519.527,539.068,521.156,533.307,521.156z M508.633,508.852l-1.637-2.182  c-3.163-5.1-4.791-10.741-4.791-16.502c0-5.766,1.582-11.449,4.609-16.359l1.463-2.379l4.838,2.927l-1.504,2.417  c-2.439,4.008-3.766,8.663-3.766,13.395c0,4.684,1.328,9.333,3.816,13.341l1.404,2.301L508.633,508.852z M558.234,508.781  l-4.8-2.963l1.46-2.42c2.479-4.006,3.76-8.618,3.76-13.343c0-4.684-1.329-9.335-3.816-13.343l4.783-3.026l-2.419,1.503l2.421-1.501  c3.044,4.965,4.672,10.605,4.672,16.367c0,5.76-1.579,11.396-4.6,16.306L558.234,508.781z M517.242,469.981l-2.733-4.919  l2.376-1.333c9.82-6.112,22.803-6.063,32.623-0.057l2.418,1.461l-2.963,4.839l-2.381-1.503c-7.994-4.861-18.541-4.924-26.549-0.063  l-0.311,0.188L517.242,469.981z M533.25,477.74c-6.854,0-12.426,5.572-12.426,12.426c0,6.854,5.572,12.427,12.426,12.427  s12.426-5.572,12.426-12.427C545.676,483.312,540.104,477.74,533.25,477.74z M331.994,479.696c-24.661,0-44.651,19.99-44.651,44.651  c0,24.663,19.988,44.651,44.651,44.651c24.662,0,44.651-19.988,44.651-44.651C376.646,499.687,356.656,479.696,331.994,479.696z   M356.587,505.813c0.347-0.109,0.743-0.298,0.941-0.605c0.308,0,0.693-0.197,0.991-0.396l0.495,0.199l0.496-0.09l0.108,0.1v0.793  l0.198,0.297l-0.595-0.1l-0.595,0.392l0.188,0.203l-0.545,0.1c0.803,0.595,0.645,1.18,1.744,1.477  c-0.307,0.703,0.396,0.798,0.595,1.09l-0.208,0.496l0.396,0.792l0.297,0.198c0.1,0.208,0.506,1.486,0.496,1.685  c-2.369,0.506-1.388-0.188-3.161-0.584l-0.258-0.743c0.247-0.456,0.148-1.041,0.356-1.489c-0.704-0.642-1.794-1.444-1.844-2.529  l-0.545-0.498C356.349,506.497,356.487,506.103,356.587,505.813z M346.24,517.001c-0.892,0-1.496-0.792-2.478-0.485  c-0.595-0.594-0.208-0.406-1.188-0.505c-0.506-0.793-1.982-0.783-2.28,0.201c0.298,0.294,0.189,0.701,0,0.995l-0.505,0.2  c-0.743-0.406-2.279-0.505-2.378-1.585l-2.47-0.545l-0.348-0.555l-0.356,0.108l-0.188-0.307l0.691-0.488  c-0.107-0.493-0.446-1.286,0-1.683c-0.305-0.01-0.6-0.208-0.899-0.297c-0.693,0.396-1.239,0.585-1.982,0.237l-0.585,0.356  c-1.687-0.594-3.567,0.295-4.865,1.282l-0.496-0.301c-0.595,0.109-1.081,0.298-1.487-0.287l-0.297-0.01  c-0.297,0.406-0.584,0.895-0.783,1.388c-1.1,0.594-2.487,1.486-1.992,2.982c-0.485,0.783-1.188,1.378-2.071,1.486l-0.594,0.991  c-0.792,0.188-1.497,2.666-1.992,3.359c-0.892,1.289,1.199,3.377-0.793,5.756l0.307,0.584c-0.208,1.686,1.477,2.279,2.22,3.419  c0.941,1.349,1.932,3.815,3.924,3.915c1.179,0.01,0.594-1.135,3.755-0.396c3.767-1.883,2.686-1.981,5.55,0.406  c0.496-0.01,0.893-0.308,1.388-0.308c0.396,0.209,0.644,0.694,0.803,1.091c-1.101,6.145,2.368,5.054,2.368,8.974l-0.197,0.342  c0,0.991,1.092,1.243,0.207,2.587c-0.297,0.535-1.298,2.566-1.094,3.161c1.084,3.082,2.078,6.193,3.168,9.275  c0.231,0.654,0.514,1.305,0.775,1.96c-2.302,0.407-4.666,0.632-7.083,0.632c-9.85,0-18.89-3.529-25.927-9.386  c0.427-1.856,0.668-4.258,0.549-4.86c0.786-1.288,1.585-2.521,2.475-3.711c0.002-0.495,0.092-2.434-0.449-2.631  c-1.828-0.694-3.81-2.279-5.792-1.973c-0.456-0.901-1.596-1.388-2.586-1.397c-0.639,0.991-1.685,1.496-2.27,0.109  c0.783-0.901,1.387-1.288,0.446-2.379c-0.347-2.388-1.734-2.576-3.771-2.774c-0.476-0.043-1.427-1.201-2.061-1.771  c-0.785-3.146-1.208-6.433-1.208-9.818c0-6.003,1.32-11.699,3.668-16.831c1.457-0.676,3.697-1.477,4.232-1.714l0.595,0.198  c-0.01,0.396-1.388,0.396-1.784,0.902l0.089,0.396c0.595,0.099,5.758-2.181,3.964-2.19c-0.387,1.291-3.271,1.397-1.675-1.388  c-1.487-0.684-1.497-0.089-2.882,0.01c1.286-2.08,9.224-0.6,9.224-3.468c0-1.289-2.18-1.046-2.091-2.488  c0.008-0.809-0.526-1.776-0.992-2.542c2.975-2.888,6.388-5.322,10.131-7.197c0.288,0.151,0.565,0.365,0.782,0.533  c0,1.18-3.082,1.576-2.279,2.576c-0.892,1.884,1.08,4.45,3.062,4.45l0.496-0.396c0.793-2.071,2.983-3.359,5.054-3.756  c0.991-0.198,1.496-1.101,2.478-1.298c1.288-0.387,2.884-0.288,4.066-0.893c0.105-0.089,0.393-0.198,0.294-0.396  c-0.139-0.287-0.396-0.387-0.595-0.584c0.902-0.649,1.101,1.675,1.893,0.188c0.199-0.436-0.197-0.882-0.498-1.088  c-0.096,0.003-0.592-0.002-0.294-0.2c0.386-0.198,0.693,0.595,0.98,0.208c0.407-0.604,0.892-1.1,1.388-1.783  c-0.099-0.496,0.1-1.091,0.693-1.001c0.01-0.376-0.742-0.4-0.347-0.816c0.313-0.007,0.624-0.023,0.939-0.023  c7.94,0,15.351,2.301,21.614,6.259c-0.28,0.115-0.561,0.256-0.838,0.428l-1.18-0.089l0.595-0.198  c-0.604-0.208-1.189-0.595-1.883-0.506l0.585,0.451l-0.089,0.451l0.485,0.584l-0.089,0.209c-0.258-0.109-0.595-0.298-0.893-0.308  l-1.189,0.703l0.396,0.585c-0.594-0.099-1.1-0.238-1.685-0.396l-0.198,0.208l0.297,0.298c0.09,0,0.794,0.198,0.486,0.387  c-0.595,0-1.289-0.288-1.734-0.685c-0.237-0.803-0.535-1.188-1.328-1.486c1.288,0.396,2.963,1.189,4.162,0.188l-0.396-0.64  c-1.397-0.5-2.883-0.837-4.36-1.343c-0.208-0.099-0.506,0-0.793,0.1c-0.099,0-0.258,0.01-0.208,0  c0.893-0.882-2.368-0.793-2.765-0.783c-1.883,0.287-3.672,0.892-5.354,1.784h0.693v0.485c-0.398,0.604-0.595,0.099-1.189,1.397  c-0.495,0.198-1.298,1.378-1.794,1.09c-0.684,0.396-2.478,1.189-1.972,2.181c0,0.287,0,0.733,0.297,0.793  c-0.396,1.783,2.27,0.396,2.766-0.199c0.495,0.783,0.594,1.428,1.199,2.171c-0.209,0.297,0,0.704,0.287,0.901l0.594-0.197  l-0.088-0.298c0.386-0.109,0.789-0.203,1.191-0.208l0.198-0.783l-0.153-0.693c0.539-0.109,0.945-0.693,1.145-1.189l-0.596-0.297  l-0.307-0.893c0.604-1.1,1.189-1,1.982-1.793l-0.1-0.198l0.308-0.486l0.882-0.198c2.289-0.495-0.981,1.774-0.981,1.774  c-0.297,0.208,0.188,0.703,0.188,1.1c-0.089,1.586,3.221,0.694,4.262,1.091c-0.396,0.188-0.843,0.188-1.189,0.386  c-1.477-0.29-1.388,0.1-2.676,0.496l0.198,0.398l1.09-0.102c0.208,1.299-0.387,1.09-1.08,0.308c-0.753,0-0.693,1.137-0.604,1.675  c-0.297,0.297-1.278,0.793-1.278,0.793c0.099-0.741-2.083,0.153-2.381,0.208l-0.595-0.308l-1.199,0.396l-0.693-0.637l0.208-0.85  l0.386-0.387l-0.386-0.198l0.188-0.495l-0.387-0.198l-0.208,0.392c-1.333,0.193-0.882,1.59-0.387,2.373  c-2.279,0.495-2.388,0.901-4.063,2.188c-0.01,0.498-1.189,1.192-1.596,1.192l-0.484-0.348l-0.209,0.139l0.1,0.704  c-0.396,0.089-0.84,0-1.189-0.108c-0.387,0.101-0.783,0.108-0.64,0.604c0.946,0.198,1.433,0.387,1.928,1.289  c1.299,2.673-2.368,2.128-3.469,2.125l-0.287-0.192l-1.189,0.445c0.684,0.146-0.01,2.775-0.396,3.171  c0.495-0.307,0.287,1.289,0.287,1.477c1.893-0.584,1.487,0.803,2.082,0.794c0.703-0.981,2.091-0.198,3.071-1.289  c0.011-0.396,0.209-0.684,0.506-0.892l-0.109-0.684c0.902-1.001,0.693-1.189,2.084-1.784c0.404-2.229,0.899-0.308,2.386-1.09  c2.726-1.388,3.37,2.371,5.345,2.676l0.108,0.882l-0.298,0.396l0.486,0.198c0.209-0.288,0.198-0.788,0.594-0.882l-0.396-0.506  l0.396-0.488c0.199,0.191,0.496,0.151,0.596,0.488l0.208-0.297c-0.208-0.496-1.091-0.783-1.596-0.981l0.05-0.308  c-0.535,0.01-0.944-0.386-1.33-0.693c0.088-0.585-0.605-0.783-0.902-1.08v-0.803c0.307-0.387,0.793-0.1,0.99,0.297  c0.496,0.109,0.406,0.694,1.094,1.001c0.742,0.396,1.645,0.595,2.091,1.383l0.089,0.996c0.396,0.287,0.892,0.738,0.803,1.278  c0.496,0.297,0.198,0.693,0.198,0.693l0.05,0.1l0.436,0.208l0.149,0.594l0.347,0.05l0.495,0.149l0.099-0.1l-0.287-0.703l0.485,0.197  v-0.099l-0.247-0.396l0.099-0.099l0.456,0.208v-0.694l-0.406-0.297l-0.198-0.406l-0.287-0.099l-0.198-0.496  c0.287-0.099,0.684,0.01,0.882,0.198l0.198-0.485l0.406,0.188l0.287-0.1l0.298,0.298c0.604-0.396,1.09-0.738,1.793-0.585  l0.188-0.208c-1.477-0.348-0.693-2.666,0-2.964c0-0.901,0.951-1.486,1.586-0.604c1.299,0,2.577-0.642,3.776-1.08l0.287,0.198  c-0.298,0.198-0.684,1.477-2.171,1.378c-0.901-0.1-0.059-0.981-1.793,0c0.396-0.09,0.803,0.198,0.693,0.604l0.307,0.099  c1.189-0.693,4.847,0.288,4.847,1.873c0,0.893-1.576,0.646-2.131,0.646c-1.03,0-1.526-0.934-2.824-0.834  c-0.981,0.094-0.981,0.892-2.279,0.693c0.406,0.099,0.198,0.387,0.108,0.396c-0.505,0.396-1.298,0.099-1.893,0.396  c-0.1,0.089-0.684,0.387-0.396,0.535c0,0.356,0.506,0.247,0.496,0.6c-0.694-0.055,0.703,1.243,0.892,1.432  c0.505,0,0.693,0.496,1.149,0.498l0.645-0.498c0.595,0,1.08,0.595,1.675,0.595c0.495,0,0.208-0.882,1.199-0.389l0.287-0.295  l0.208,0.188l-0.208,0.297c0.308,3.28,0.1,3.523-2.774,3.523C347.033,516.462,346.736,517.001,346.24,517.001z M360.107,553.587  c0.002-0.053,0.404-0.46,0.404-0.46l0.089-0.501c0.505-0.743,0.198-2.319-0.485-2.874c-0.298,0.298-0.793,0.853-0.793,0.853  c-1.199,2.126-0.704,1.03-2.389,2.23c-0.693,1.625-0.585,0.489-0.198,2.428c0.064,0.463-0.474,1.189-0.128,1.334  c-2.451,1.875-5.121,3.473-7.964,4.757c0.185-0.416,0.317-0.808,0.372-1.146c0.099-0.842,2.963-1.03,1.575-3.072  c0.011-0.396,0.011-0.892-0.247-1.188c0.445-2.027,3.627-1.576,4.172-4.708c0.337-1.922-1.248-3.914-0.853-5.599  c-1.288-2.864,7.046-8.622,7.829-13.379c0.308-2.27-4.36,1.982-5.342-0.981l0.1-0.406c-1.496-0.892-3.667-3.26-4.212-4.942  c-0.159-0.506-0.05-1.1-0.248-1.694c-0.703-2.27-2.289-4.252-3.369-6.343c0.298-0.392,0.991,1.189,1.09,1.388l0.387-0.1v-0.892  l3.419,6.441c0.645,1.189,1.843,1.979,2.429,3.278c0.307,0.792,0.099,1.685,0.445,2.467l0.853,0.506  c1.585-0.704,3.111-1.487,4.757-2.091c0.387-0.188,0.287-0.585,0.495-0.838c0.396-0.44,1.09-0.242,1.576-0.55  c0.495-0.297,0.208-0.535,0.99-0.738l0.793-0.79c-0.099-0.293-0.099-0.64,0-0.937c0.396,0.039,1.041-0.893,1.041-0.893  c0.148-1.196-1.933-1.595-2.616-3.279c-0.604,0.604-1.289,1.348-2.181,1.685c-0.892-0.288-4.162-4.262-2.686-5.145l0.694,0.188  c0.99,1.349,2.478,3.776,4.37,2.334l0.198,0.055l0.089,0.387l0.703,0.704c1.973,0.297,3.509,0.188,5.441,0.099  c0.396-0.01,0.604,0.783,0.792,0.991c0.308,0.099,1.05,0.78,1.05,0.78c0.017,0.467,0.036,0.932,0.036,1.402  C372.587,535.825,367.791,546.197,360.107,553.587z M336.021,511.554v-0.003h-0.1C335.932,511.551,335.932,511.551,336.021,511.554z   M334.537,498.579l0.404,0.386l-0.1,0.109c-0.406,0.684,0.584-0.298,0.594-0.396l-0.505-0.495l-0.394,0.344V498.579z   M322.751,501.641c0.595-0.287,1.189-0.485,1.874-0.684l0.307-0.892l-0.1-0.396l0.486-0.208l-0.981-0.64  c-0.496,0.441-1.001,0.793-1.596,1.046l0.153,0.495l-0.54,0.887L322.751,501.641z M325.625,498.975l0.297,0.288l0.496-0.188  l-0.01,0.099l0.307,0.595l-0.307,0.485l-0.386-0.089c0,0.495-0.297,0.981-0.595,1.283c0.396-0.104,0.792,0.193,1.233,0.104  c-0.342,0.684-1.233,0.595-1.739,0.991l0.198,0.099l0.651-0.297l0.251,0.089c0.486-0.387,2.279-0.347,2.972-0.684l-0.255-0.298  l0.553-0.793l-0.308-0.205l-0.485,0.106c0.146-0.505-0.108-1.09-0.701-1.288l-0.29-0.704l-0.595-0.485l0.595-0.892l-0.307-0.109  l-0.684,0.109l0.386-0.704h-0.892c-0.287,0.308-0.595,0.604-0.892,0.902l0.1,0.885C325.625,498.271,325.813,498.668,325.625,498.975  z M179.604,505.572l-22.119-10.575c0.282-1.138,0.475-2.284,0.603-3.44h24.329v-3.279h-24.153  c-0.102-6.808-2.821-13.57-8.148-18.633c-5.072-4.827-11.576-7.223-18.067-7.223c-6.938,0-13.86,2.733-19.017,8.156  c-9.983,10.509-9.564,27.109,0.937,37.09c5.075,4.826,11.578,7.222,18.069,7.222c6.938,0,13.861-2.735,19.023-8.157  c0.064-0.067,0.115-0.138,0.176-0.205l22.1,10.569c3.172,1.727,7.146,0.545,8.876-2.636  C183.941,511.273,182.775,507.299,179.604,505.572z M117.784,475.099c3.752-3.944,8.818-6.117,14.264-6.117  c5.065,0,9.876,1.924,13.548,5.418c3.962,3.765,5.999,8.801,6.099,13.878h-8.378l-6.046,6.524l-7.229-20.004l-9.884,13.194h-7.69  C112.623,483.344,114.336,478.728,117.784,475.099z M132.037,508.33c-5.065,0-9.876-1.925-13.55-5.416  c-3.375-3.209-5.27-7.351-5.845-11.643h9.156l7.226-9.642l6.992,19.354l8.733-9.427h6.716c-0.57,3.869-2.264,7.61-5.156,10.653  C142.554,506.155,137.484,508.33,132.037,508.33z"/>
</svg>