<?xml version="1.0" encoding="utf-8"?>
<!-- Generator: Adobe Illustrator 18.1.1, SVG Export Plug-In . SVG Version: 6.00 Build 0)  -->
<!DOCTYPE svg PUBLIC "-//W3C//DTD SVG 1.1//EN" "http://www.w3.org/Graphics/SVG/1.1/DTD/svg11.dtd">
<svg version="1.1" id="Ziggo_x5F_Orange_x5F_RGB" xmlns="http://www.w3.org/2000/svg" xmlns:xlink="http://www.w3.org/1999/xlink"
	 x="0px" y="0px" viewBox="0 0 212 75.8" enable-background="new 0 0 212 75.8" xml:space="preserve">
<path fill="#F48C00" d="M69.3,62.3c0.8,0.8,1.2,1.9,1.2,3c0,1.3-0.6,2.3-1.2,3c-1.3,1.3-3,2.6-5.2,3.5C62.2,72.5,60.1,73,58,73H38.5
	H19c-4.4,0-8.4-1.8-11.3-4.7C4.8,65.4,3.1,61.4,3.1,57V37.5V18c0-4.4,1.8-8.4,4.7-11.3c2.9-2.9,6.9-4.7,11.3-4.7h19.5H58
	c2.2,0,4.2,0.4,6.1,1.2c2.6,1.1,4.2,2.4,5.8,4.1c0.6,0.7,1.2,1.7,1.2,3c0,1.1-0.4,2.2-1.2,3c-0.8,0.8-1.9,1.2-3,1.2
	c-1.1,0-2.2-0.4-3-1.2c-1.1-1.1-1.7-1.7-3-2.2C60,10.8,59,10.5,58,10.5H38.5H19c-2.1,0-3.9,0.8-5.3,2.2c-1.4,1.4-2.2,3.2-2.2,5.3
	v19.5V57c0,2.1,0.8,3.9,2.2,5.3c1.4,1.4,3.2,2.2,5.3,2.2h19.5H58c1,0,2-0.2,2.9-0.6c0.8-0.3,1.7-0.9,2.4-1.6c0.8-0.8,1.9-1.2,3-1.2
	C67.4,61.1,68.5,61.5,69.3,62.3z M57.9,57.3c-0.2-3.1-2.2-7.8-7.5-8.4H31.8l21.4-20.5c0.9-0.9,2.9-3.8,1.5-6.9
	c-1.2-2.5-3.1-3.6-6.5-3.6H21.5c0.1,3.5,1.9,7.8,6.6,8.5h15.2L20.8,47.5c-0.9,0.9-2.4,3.6-1.2,6.3c1.1,2.5,2.9,3.5,6.2,3.5H57.9z
	 M118.9,38v15.7c0,5.8-1.8,10.9-5.8,14.9c-3.6,3.6-8.2,5.1-13.2,5.1c-9.9,0-14.9-7.6-14.9-7.6c2.7-2.7,6.3-4.3,10-2.1
	c0.6,0.4,2.4,1.4,5,1.4c9.1,0,10.6-8.2,10.6-10.6c-3.2,1.9-6.7,2.9-10.7,2.9h0c-5.2,0-9.7-1.6-13.4-4.9l0,0c-3.7-3.5-5.6-7.9-5.6-13
	c0-1,0-4.4,0-5.2c0-5,1.9-9.3,5.6-12.9c3.8-3.6,8.3-5.4,13.5-5.4h0h0c6.9,0,12,3.4,14.3,6.3c0.6,0.7,0.9,1.7,0.9,2.7
	c0,1.2-0.5,2.2-1.2,3c-0.8,0.8-1.8,1.2-3,1.2c-1.2,0-2.3-0.5-3-1.2c-2.6-2.7-5.1-3.6-8.1-3.6c-2.9,0-5.4,1-7.5,3
	c-2.1,2-3.1,4.2-3.1,7c0,1.2,0,3.9,0,5.1c0,2.9,1,5.2,3.1,7.1c2.2,2,4.6,2.9,7.5,2.9c2.9,0,5.3-1,7.5-3c1.1-1.1,1.9-2.3,2.4-3.6
	c0.4-1.1,1.2-3.3,4.1-4.4C116.2,37.9,118.9,38,118.9,38z M158.8,38.8c-2.8,1.1-3.7,3.3-4.1,4.4c-0.5,1.3-1.3,2.5-2.4,3.6
	c-2.2,2-4.6,3-7.5,3c-2.9,0-5.3-1-7.5-2.9c-2.1-2-3-4.2-3.1-7.1c0-1.2,0-3.8,0-5.1c0-2.8,1-5.1,3.1-7c2.1-2,4.5-3,7.5-3
	c2.9,0,5.4,0.9,8.1,3.6c0.7,0.7,1.8,1.2,3,1.2c1.2,0,2.2-0.5,3-1.2c0.8-0.8,1.2-1.8,1.2-3c0-1-0.3-1.9-0.9-2.7
	c-2.3-2.8-7.4-6.3-14.3-6.3h0h0c-5.2,0-9.7,1.8-13.5,5.4c-3.7,3.6-5.6,7.9-5.6,12.9c0,0.8,0,4.1,0,5.2c0,5.1,1.9,9.4,5.6,13l0,0
	c3.8,3.2,8.3,4.8,13.4,4.9h0c4,0,7.5-1,10.7-2.9c0,2.4-1.5,10.6-10.6,10.6c-2.6,0-4.4-1-5-1.4c-3.6-2.2-7.3-0.6-10,2.1
	c0,0,5.1,7.6,14.9,7.6c5,0,9.6-1.5,13.2-5.1c4-4,5.8-9.1,5.8-14.9V38C163.9,38,161.2,37.9,158.8,38.8z M208.9,34.6
	c0-5-1.9-9.4-5.6-12.9c-3.8-3.6-8.3-5.4-13.5-5.4h0h0c-5.2,0-9.7,1.8-13.5,5.4c-3.7,3.6-5.6,7.9-5.6,12.9c0,0.8,0,4.1,0,5.2
	c0,5.1,1.9,9.4,5.6,13l0,0c3.8,3.2,8.3,4.8,13.4,4.9h0c5.2,0,9.7-1.6,13.4-4.8l0,0c3.7-3.5,5.6-7.9,5.6-13
	C208.9,38.7,208.9,35.4,208.9,34.6 M189.8,49.8c-2.9,0-5.3-1-7.5-2.9c-2.1-2-3-4.2-3.1-7.1c0-1.2,0-3.8,0-5.1c0-2.8,1-5.1,3.1-7
	c2.1-2,4.5-3,7.5-3c2.9,0,5.4,1,7.5,3c2.1,1.9,3,4.2,3.1,7c0,1.2,0.1,3.8,0,5.1c0,2.9-1,5.1-3.1,7.1
	C195.1,48.8,192.6,49.8,189.8,49.8 M73.9,17.8c-4.4,0-8.4,3.7-8.4,7.7v31.8c4.4,0,8.4-3.7,8.4-7.7V17.8z"/>
</svg>
